<svg xmlns="http://www.w3.org/2000/svg" xmlns:xlink="http://www.w3.org/1999/xlink" width="721.445" height="586.38" viewBox="0 0 721.445 586.38">
  <defs>
    <filter id="Ellipse_80" x="80" y="0" width="214.38" height="214.38" filterUnits="userSpaceOnUse">
      <feOffset dy="10" input="SourceAlpha"/>
      <feGaussianBlur stdDeviation="10" result="blur"/>
      <feFlood flood-opacity="0.161"/>
      <feComposite operator="in" in2="blur"/>
      <feComposite in="SourceGraphic"/>
    </filter>
    <filter id="Ellipse_82" x="284" y="414" width="172.38" height="172.38" filterUnits="userSpaceOnUse">
      <feOffset dy="3" input="SourceAlpha"/>
      <feGaussianBlur stdDeviation="3" result="blur-2"/>
      <feFlood flood-opacity="0.161"/>
      <feComposite operator="in" in2="blur-2"/>
      <feComposite in="SourceGraphic"/>
    </filter>
    <filter id="Ellipse_84" x="471" y="14" width="172.38" height="172.38" filterUnits="userSpaceOnUse">
      <feOffset dy="3" input="SourceAlpha"/>
      <feGaussianBlur stdDeviation="3" result="blur-3"/>
      <feFlood flood-opacity="0.161"/>
      <feComposite operator="in" in2="blur-3"/>
      <feComposite in="SourceGraphic"/>
    </filter>
  </defs>
  <g id="Group_43" data-name="Group 43" transform="translate(-309 -1933)">
    <g id="Group_42" data-name="Group 42">
      <circle id="Ellipse_79" data-name="Ellipse 79" cx="78.783" cy="78.783" r="78.783" transform="translate(417.882 1951)" fill="none" stroke="#ff214f" stroke-miterlimit="10" stroke-width="4"/>
      <g transform="matrix(1, 0, 0, 1, 309, 1933)" filter="url(#Ellipse_80)">
        <circle id="Ellipse_80-2" data-name="Ellipse 80" cx="69.205" cy="69.205" r="69.205" transform="matrix(0.12, -0.99, 0.99, 0.12, 110, 157.36)" fill="#ff214f"/>
      </g>
      <circle id="Ellipse_81" data-name="Ellipse 81" cx="78.783" cy="78.783" r="78.783" transform="translate(600.424 2351.367)" fill="none" stroke="#343f44" stroke-miterlimit="10" stroke-width="4"/>
      <g transform="matrix(1, 0, 0, 1, 309, 1933)" filter="url(#Ellipse_82)">
        <circle id="Ellipse_82-2" data-name="Ellipse 82" cx="69.205" cy="69.205" r="69.205" transform="matrix(0.12, -0.99, 0.99, 0.12, 293, 557.36)" fill="#343f44"/>
      </g>
      <circle id="Ellipse_83" data-name="Ellipse 83" cx="78.783" cy="78.783" r="78.783" transform="translate(787.723 1951)" fill="none" stroke="#ff214f" stroke-miterlimit="10" stroke-width="4"/>
      <g transform="matrix(1, 0, 0, 1, 309, 1933)" filter="url(#Ellipse_84)">
        <circle id="Ellipse_84-2" data-name="Ellipse 84" cx="69.205" cy="69.205" r="69.205" transform="translate(480 157.36) rotate(-82.94)" fill="#ff214f"/>
      </g>
      <path id="Path_316" data-name="Path 316" d="M362.806,326.607a2.155,2.155,0,0,1-1.525-3.669,2.248,2.248,0,0,1,3.048,0,2.157,2.157,0,0,1-1.523,3.669Z" transform="translate(133.859 1818.191)" fill="#040505"/>
      <path id="Path_317" data-name="Path 317" d="M360.66,317.968a2.152,2.152,0,0,1,2.146-2.146h0a2.152,2.152,0,0,1,2.146,2.146h0a2.139,2.139,0,0,1-2.146,2.146h0A2.139,2.139,0,0,1,360.66,317.968Z" transform="translate(133.859 1815.199)" fill="#343f44"/>
      <path id="Path_318" data-name="Path 318" d="M362.806,313.619a2.214,2.214,0,0,1-1.525-.623,2.147,2.147,0,1,1,3.048,0A2.219,2.219,0,0,1,362.806,313.619Z" transform="translate(133.859 1812.23)" fill="#ff214f"/>
      <path id="Path_319" data-name="Path 319" d="M376.2,321.64l-10.7,18.53-10.7-18.53Z" transform="translate(131.168 1817.869)" fill="#343f44"/>
      <path id="Path_320" data-name="Path 320" d="M487.926,441.029a2.154,2.154,0,0,1,1.523,3.669,2.243,2.243,0,0,1-3.046,0,2.158,2.158,0,0,1,1.523-3.669Z" transform="translate(191.281 1872.661)" fill="#040505"/>
      <path id="Path_321" data-name="Path 321" d="M490.072,449.676a2.151,2.151,0,0,1-2.146,2.146h0a2.151,2.151,0,0,1-2.146-2.146h0a2.139,2.139,0,0,1,2.146-2.146h0A2.139,2.139,0,0,1,490.072,449.676Z" transform="translate(191.281 1875.645)" fill="#040505"/>
      <path id="Path_322" data-name="Path 322" d="M487.926,454.018a2.213,2.213,0,0,1,1.523.621,2.146,2.146,0,1,1-3.046,0A2.224,2.224,0,0,1,487.926,454.018Z" transform="translate(191.281 1878.623)" fill="#040505"/>
      <path id="Path_323" data-name="Path 323" d="M479.916,450.484l10.7-18.53,10.7,18.53Z" transform="translate(188.59 1868.496)" fill="#040505"/>
      <path id="Path_324" data-name="Path 324" d="M616.306,326.607a2.155,2.155,0,0,1-1.525-3.669,2.248,2.248,0,0,1,3.048,0,2.157,2.157,0,0,1-1.523,3.669Z" transform="translate(250.2 1818.191)" fill="#343f44"/>
      <path id="Path_325" data-name="Path 325" d="M614.16,317.968a2.152,2.152,0,0,1,2.146-2.146h0a2.152,2.152,0,0,1,2.146,2.146h0a2.139,2.139,0,0,1-2.146,2.146h0A2.139,2.139,0,0,1,614.16,317.968Z" transform="translate(250.2 1815.199)" fill="#343f44"/>
      <path id="Path_326" data-name="Path 326" d="M616.306,313.619a2.214,2.214,0,0,1-1.525-.623,2.147,2.147,0,1,1,3.048,0A2.219,2.219,0,0,1,616.306,313.619Z" transform="translate(250.2 1812.23)" fill="#ff214f"/>
      <path id="Path_327" data-name="Path 327" d="M629.7,321.64,619,340.17l-10.7-18.53Z" transform="translate(247.509 1817.869)" fill="#343f44"/>
      <rect id="Rectangle_37" data-name="Rectangle 37" width="628.07" height="80.367" transform="translate(365.172 2188.633)" fill="#343f44"/>
      <path id="Path_328" data-name="Path 328" d="M954.945,314.277h0Z" transform="translate(75.5 1814.49)" fill="none" stroke="#ff214f" stroke-miterlimit="10" stroke-width="1"/>
      <text id="Web" transform="translate(479 2036)" fill="#fff" font-size="16" font-family="OpenSans-Bold, Open Sans" font-weight="700"><tspan x="0" y="0">Web</tspan></text>
      <text id="Mobile" transform="translate(840 2036)" fill="#fff" font-size="16" font-family="OpenSans-Bold, Open Sans" font-weight="700"><tspan x="0" y="0">Mobile</tspan></text>
      <text id="API_Gateway" data-name="API Gateway" transform="translate(627 2235)" fill="#fff" font-size="16" font-family="OpenSans-Bold, Open Sans" font-weight="700"><tspan x="0" y="0">API Gateway</tspan></text>
      <text id="Client" transform="translate(648 2109)" fill="#ff214f" font-size="16" font-family="OpenSans-Bold, Open Sans" font-weight="700"><tspan x="0" y="0">Client</tspan></text>
      <text id="Server" transform="translate(646 2161)" fill="#343f44" font-size="16" font-family="OpenSans-Bold, Open Sans" font-weight="700"><tspan x="0" y="0">Server</tspan></text>
      <text id="Database" transform="translate(642 2436)" fill="#fff" font-size="16" font-family="OpenSans-Bold, Open Sans" font-weight="700"><tspan x="0" y="0">Database</tspan></text>
    </g>
  </g>
</svg>
