<svg xmlns="http://www.w3.org/2000/svg" width="43.875" height="43.875" viewBox="0 0 43.875 43.875">
  <g id="Group_35" data-name="Group 35" transform="translate(-936 -4392)">
    <path id="Path_310" data-name="Path 310" d="M38.992,10.769a19.744,19.744,0,0,0-7.178-3.835,21.5,21.5,0,0,0-4.989-.878A10.541,10.541,0,0,0,25.5,6c-.417,0-.777,0-1.141.035a29.778,29.778,0,0,0-3.343.36,20.38,20.38,0,0,0-6.432,2.321,17.2,17.2,0,0,0-6.454,6.059A13.456,13.456,0,0,0,6.406,25.393a14.8,14.8,0,0,0,4.853,7.81A20.182,20.182,0,0,0,22.337,38.09,4.633,4.633,0,0,1,26.5,43.017v.4c.917-.562,1.834-1.189,2.747-1.843A85.46,85.46,0,0,0,39.3,33.264a20.591,20.591,0,0,0,2.672-3.014A14.207,14.207,0,0,0,44.6,22.2a13.821,13.821,0,0,0-.518-3.756A15.457,15.457,0,0,0,38.992,10.769ZM16.4,25.63a2.523,2.523,0,1,1,2.505-2.488A2.523,2.523,0,0,1,16.4,25.63Zm8.872,0a2.523,2.523,0,1,1,2.545-2.518,2.549,2.549,0,0,1-2.545,2.523Zm8.924,0a2.523,2.523,0,1,1,2.51-2.518A2.523,2.523,0,0,1,34.2,25.63Z" transform="translate(932.64 4388.632)" fill="none"/>
    <path id="Path_311" data-name="Path 311" d="M37.329,5.4a22.49,22.49,0,0,0-8.108-4.348,24.039,24.039,0,0,0-5.6-1C23.131,0,22.635,0,22.144,0s-.877,0-1.316.039a32.439,32.439,0,0,0-3.637.395A22.92,22.92,0,0,0,9.929,3.071a19.875,19.875,0,0,0-7.406,6.976,16.137,16.137,0,0,0-2.036,12.6A17.493,17.493,0,0,0,6.143,31.8a22.916,22.916,0,0,0,12.491,5.528,2,2,0,0,1,1.878,2.238,17.827,17.827,0,0,1-.25,2.15,4.19,4.19,0,0,0-.088,1.628.575.575,0,0,0,.535.527h.1a5.4,5.4,0,0,0,1.316-.342,29.458,29.458,0,0,0,5.3-3.168,87.674,87.674,0,0,0,10.35-8.578,22.9,22.9,0,0,0,3.036-3.4,16.76,16.76,0,0,0,3.071-9.543,16.436,16.436,0,0,0-.619-4.488A18.125,18.125,0,0,0,37.329,5.4Zm1.286,21.5a20.591,20.591,0,0,1-2.681,3.01,85.46,85.46,0,0,1-10.047,8.3c-.926.654-1.843,1.29-2.777,1.847v-.4a4.633,4.633,0,0,0-4.164-4.927A20.183,20.183,0,0,1,7.9,29.835a14.8,14.8,0,0,1-4.853-7.81A13.456,13.456,0,0,1,4.774,11.407a17.2,17.2,0,0,1,6.45-6.059A20.38,20.38,0,0,1,17.66,3.027,29.777,29.777,0,0,1,21,2.668c.364-.035.746-.035,1.141-.035s.878,0,1.316.039a21.5,21.5,0,0,1,4.989.878,19.744,19.744,0,0,1,7.174,3.839,15.457,15.457,0,0,1,5.1,7.691,13.821,13.821,0,0,1,.518,3.756,14.207,14.207,0,0,1-2.632,8.047Z" transform="translate(936 4392)" fill="#ff214f"/>
    <path id="Path_312" data-name="Path 312" d="M46.767,39.25a2.523,2.523,0,1,0,2.518,2.523,2.523,2.523,0,0,0-2.518-2.523Z" transform="translate(911.171 4369.971)" fill="#ff214f"/>
    <path id="Path_313" data-name="Path 313" d="M26.5,39.25a2.514,2.514,0,1,0,1.775.76,2.523,2.523,0,0,0-1.775-.76Z" transform="translate(922.564 4369.971)" fill="#ff214f"/>
    <path id="Path_314" data-name="Path 314" d="M67.058,39.25a2.523,2.523,0,1,0,2.488,2.523A2.523,2.523,0,0,0,67.058,39.25Z" transform="translate(899.8 4369.971)" fill="#ff214f"/>
  </g>
</svg>
