<svg xmlns="http://www.w3.org/2000/svg" width="46.994" height="31.329" viewBox="0 0 46.994 31.329">
  <g id="Group_36" data-name="Group 36" transform="translate(-1032 -4417)">
    <path id="Path_315" data-name="Path 315" d="M9.678,974.362A1.7,1.7,0,0,0,8,976.041v27.972a1.7,1.7,0,0,0,1.678,1.678H53.315a1.7,1.7,0,0,0,1.678-1.678V976.041a1.7,1.7,0,0,0-1.678-1.678Zm2.255,2.238H51.06L31.5,994.66Zm-1.7,1.469L22.9,989.747l-12.658,12.168Zm42.518,0v23.847L40.1,989.747Zm-28.217,13.2L30.745,997a1.119,1.119,0,0,0,1.5,0l6.206-5.734,12.675,12.186H11.864Z" transform="translate(1024 3442.638)" fill="#ff214f"/>
  </g>
</svg>
