<svg xmlns="http://www.w3.org/2000/svg" width="35.245" height="43.379" viewBox="0 0 35.245 43.379">
  <g id="Group_37" data-name="Group 37" transform="translate(-684 -4222.621)">
    <path id="Path_307" data-name="Path 307" d="M19.2,35.245a1.354,1.354,0,0,1-1.089-.548C17.658,34.086,7,19.625,7,12.2a12.2,12.2,0,0,1,24.4,0c0,7.425-10.658,21.886-11.112,22.5A1.354,1.354,0,0,1,19.2,35.245Zm0-32.534A9.5,9.5,0,0,0,9.711,12.2c0,4.846,6.091,14.528,9.489,19.369,3.4-4.842,9.489-14.527,9.489-19.369A9.5,9.5,0,0,0,19.2,2.711Z" transform="translate(682.422 4222.621)" fill="#ff214f"/>
    <path id="Path_308" data-name="Path 308" d="M17.422,15.845a5.422,5.422,0,1,1,5.422-5.422A5.428,5.428,0,0,1,17.422,15.845Zm0-8.134a2.711,2.711,0,1,0,2.711,2.711A2.714,2.714,0,0,0,17.422,7.711Z" transform="translate(684.2 4224.399)" fill="#ff214f"/>
    <path id="Path_309" data-name="Path 309" d="M20.623,35.556C12.08,35.556,3,32.91,3,28c0-2.433,2.286-4.54,6.434-5.933a1.356,1.356,0,0,1,.864,2.572C6.912,25.777,5.711,27.164,5.711,28c0,1.974,5.809,4.841,14.911,4.841S35.534,29.978,35.534,28c0-.84-1.2-2.227-4.587-3.363a1.356,1.356,0,0,1,.864-2.572c4.149,1.395,6.435,3.5,6.435,5.935C38.245,32.91,29.166,35.556,20.623,35.556Z" transform="translate(681 4230.444)" fill="#ff214f"/>
  </g>
</svg>
