<svg xmlns="http://www.w3.org/2000/svg" width="20.336" height="16.314" viewBox="0 0 20.336 16.314">
  <path id="Path_316" data-name="Path 316" d="M39.967,982.346a5.632,5.632,0,0,0-3.82,1.477l-.93.853-.93-.853a5.692,5.692,0,0,0-7.641,0,4.877,4.877,0,0,0,0,7.221q4.01,3.695,8.023,7.4a.815.815,0,0,0,1.108,0l8.01-7.4a4.88,4.88,0,0,0,0-7.221A5.632,5.632,0,0,0,39.967,982.346Zm0,1.643a4,4,0,0,1,2.713,1.031,3.166,3.166,0,0,1,0,4.827l-7.45,6.877q-3.735-3.442-7.475-6.877a3.151,3.151,0,0,1,0-4.814,4.089,4.089,0,0,1,5.425,0l1.477,1.35a.815.815,0,0,0,1.108,0l1.49-1.363A4,4,0,0,1,39.967,983.989Z" transform="translate(-25.049 -982.345)" fill="#ff214f"/>
</svg>
